<svg width="1024" height="613.9" viewBox="0 0 1024 613.9" xmlns="http://www.w3.org/2000/svg" fill-rule="evenodd" clip-rule="evenodd" stroke-linejoin="round" stroke-miterlimit="2"><path d="M570 398.8c.2 1 .3 2.1.3 3.1 0 19.3-11.9 36.6-29.6 44.1-1.3.5-2.6.9-3.9 1.3-1.6.4-3.3.6-5 .6-.1 0-.3 0-.4-.1-2.9-.1-5.7-.6-8.5-1.4-15.6-4.5-26.6-18.7-26.6-35.1 0-14.2 7-27.1 17.9-34.9 1.4-1 3-1.9 4.6-2.7.2-.1.4-.2.6-.3 1.9-.8 3.8-1.4 5.9-1.7 1.8-.3 3.6-.5 5.5-.5 3.3 0 6.6.5 9.7 1.4zm-13-17.7c-1.3-.4-2.6-.7-4-.9-1.9-.3-3.8-.4-5.7-.4-4.8 0-9.4.8-13.8 2.2-12.7 4.1-22.9 14.5-26.1 27.6-1 4.3-1.6 8.7-1.6 13.2 0 11.2 3.8 21.7 10.4 30.1 9.4 12 23 19.4 38 19.4.1 0 .2 0 .3 0 .1 0 .1 0 .2 0 4.1 0 8.1-.5 12-1.5 19.1-4.8 33.2-20.9 33.2-40 0-1.2-.1-2.4-.2-3.6-4.6-19.3-21-34.2-40.9-36.1z" fill-opacity=".08" fill="#fff"/><path d="M532.5 281c-1.8-1.5-3.8-2.7-5.9-3.7-.9-.4-1.9-.8-2.8-1.1-2.3-.9-4.8-1.5-7.3-1.7-2.1-.2-4.2-.3-6.4-.3-10.1 0-19.8 2.3-28.5 6.5-18.6 8.9-30.8 28.1-30.8 49.5 0 10.3 3.3 20 9.1 28.1 1.7 2.3 3.6 4.5 5.7 6.5l.3.3c.3.3.5.5.8.8 5.7 5.2 12.8 8.6 20.6 9.8 2.3.4 4.7.5 7.1.5h.3c1.7 0 3.3-.1 5-.3 2.9-.3 5.8-.9 8.5-1.7 18.2-5.4 30.9-21.9 30.9-41.5 0-16.5-8.3-31.2-21.5-39.7-1.1-.7-2.3-1.4-3.5-2z" fill-opacity=".05" fill="#fff"/><path d="M532.5 281c-1.8-1.5-3.8-2.7-5.9-3.7-.9-.4-1.9-.8-2.8-1.1-2.3-.9-4.8-1.5-7.3-1.7-2.1-.2-4.2-.3-6.4-.3-10.1 0-19.8 2.3-28.5 6.5-18.6 8.9-30.8 28.1-30.8 49.5 0 10.3 3.3 20 9.1 28.1 1.7 2.3 3.6 4.5 5.7 6.5l.3.3c.3.3.5.5.8.8 5.7 5.2 12.8 8.6 20.6 9.8 2.3.4 4.7.5 7.1.5h.3c1.7 0 3.3-.1 5-.3 2.9-.3 5.8-.9 8.5-1.7 18.2-5.4 30.9-21.9 30.9-41.5 0-16.5-8.3-31.2-21.5-39.7-1.1-.7-2.3-1.4-3.5-2z" fill-opacity=".1" fill="#fff"/><path d="M532.5 281c-1.8-1.5-3.8-2.7-5.9-3.7-.9-.4-1.9-.8-2.8-1.1-2.3-.9-4.8-1.5-7.3-1.7-2.1-.2-4.2-.3-6.4-.3-10.1 0-19.8 2.3-28.5 6.5-18.6 8.9-30.8 28.1-30.8 49.5 0 10.3 3.3 20 9.1 28.1 1.7 2.3 3.6 4.5 5.7 6.5l.3.3c.3.3.5.5.8.8 5.7 5.2 12.8 8.6 20.6 9.8 2.3.4 4.7.5 7.1.5h.3c1.7 0 3.3-.1 5-.3 2.9-.3 5.8-.9 8.5-1.7 18.2-5.4 30.9-21.9 30.9-41.5 0-16.5-8.3-31.2-21.5-39.7-1.1-.7-2.3-1.4-3.5-2zM494.3 331c-3.1-9.9-4.8-20.5-4.8-31.5 0-23.7 9-45.1 24-61.2C483.2 215.3 454 199 421.3 199c-30.6 0-58.3 13.3-77.9 34.8-14.7 16.2-23.6 37-23.6 59.5s9 43.3 23.6 59.5c19.6 21.5 47.3 34.8 77.9 34.8 12.3 0 24.1-2.1 35.1-5.8-9.4-7.5-16.3-17.5-20-28.8z" fill-opacity=".07" fill="#fff"/><path d="M494.3 331c-3.1-9.9-4.8-20.5-4.8-31.5 0-23.7 9-45.1 24-61.2C483.2 215.3 454 199 421.3 199c-30.6 0-58.3 13.3-77.9 34.8-14.7 16.2-23.6 37-23.6 59.5s9 43.3 23.6 59.5c19.6 21.5 47.3 34.8 77.9 34.8 12.3 0 24.1-2.1 35.1-5.8-9.4-7.5-16.3-17.5-20-28.8z" fill-opacity=".05" fill="#fff"/><path d="M421.3 195c-33.3 0-63.3 14.5-84.7 37.8-16.1 17.6-25.7 40.3-25.7 65.8s9.6 48.2 25.7 65.8c21.4 23.3 51.4 37.8 84.7 37.8s63.3-14.5 84.7-37.8c16.1-17.6 25.7-40.3 25.7-65.8s-9.6-48.2-25.7-65.8C484.6 209.5 454.6 195 421.3 195zm.1 4c32.7 0 62.1 14.2 82.9 36.9C525.1 259.4 534 281.3 534 304s-8.9 44.6-20.6 61.2C484 388.8 454.1 403 421.4 403s-62.1-14.2-82.9-36.9C317.8 348.6 309 326.7 309 304s8.9-44.6 20.6-61.2C352.2 213.2 381.8 199 421.4 199z" fill-opacity=".08" fill="#fff"/><path d="M421.3 195c-33.3 0-63.3 14.5-84.7 37.8-16.1 17.6-25.7 40.3-25.7 65.8s9.6 48.2 25.7 65.8c21.4 23.3 51.4 37.8 84.7 37.8s63.3-14.5 84.7-37.8c16.1-17.6 25.7-40.3 25.7-65.8s-9.6-48.2-25.7-65.8C484.6 209.5 454.6 195 421.3 195zm.1 4c32.7 0 62.1 14.2 82.9 36.9C525.1 259.4 534 281.3 534 304s-8.9 44.6-20.6 61.2C484 388.8 454.1 403 421.4 403s-62.1-14.2-82.9-36.9C317.8 348.6 309 326.7 309 304s8.9-44.6 20.6-61.2C352.2 213.2 381.8 199 421.4 199z" fill-opacity=".05" fill="#fff"/><path d="M421.4 191c-35.9 0-68.1 15.6-91.2 40.7-17.3 18.9-27.7 43.4-27.7 70.8s10.4 51.9 27.7 70.8c23.1 25.1 55.3 40.7 91.2 40.7s68.1-15.6 91.2-40.7c17.3-18.9 27.7-43.4 27.7-70.8s-10.4-51.9-27.7-70.8C489.5 206.6 457.3 191 421.4 191z" fill-opacity=".05" fill="#fff"/><path d="M570.3 399.7c.2 1 .3 2 .3 3.1 0 17.5-10.8 33-26.6 39.8-1.7.7-3.4 1.3-5.2 1.7-1.6.4-3.2.6-4.9.6h-.4c-2.6 0-5.2-.2-7.7-.7-14-3.1-25-14.6-26.8-28.7-1.1-8.5-4.1-23.7 8.3-33.3 1-1.3 3.2-1.9 4.6-2.5.3-.1.5-.2.7-.3 1.9-.8 3.8-1.4 5.9-1.7 1.8-.3 3.6-.5 5.5-.5 3.3 0 6.6.5 9.7 1.4-4.8 20.3-22 35.8-42.5 36.8-1-.8-1.9-1.6-2.7-2.5-9.1-9.9-11.4-24.1-10.4-35.3 2-20.9 19.4-37.2 40.8-37.2.1 0 .2 0 .3 0 .1 0 .1 0 .2 0 4.1 0 8.1.5 12 1.5 19.1-4.8 33.2-20.9 33.2-40 0-1.2-.1-2.4-.2-3.6-4.7-19.2-21-34.1-40.9-36-1.3.4-2.6.7-4 .9-1.9.3-3.8.4-5.7.4-4.8 0-9.4-.8-13.8-2.2-12.7-4.1-22.9-14.5-26.1-27.6-1-4.3-1.6-8.7-1.6-13.2 0-11.2 3.8-21.7 10.4-30.1 9.4-12 23-19.4 38-19.4.1 0 .2 0 .3 0 .1 0 .1 0 .2 0 4.1 0 8.1.5 12 1.5 19.1-4.8 33.2-20.9 33.2-40 0-1.2-.1-2.4-.2-3.6-4.7-19.2-21-34.1-40.9-36-1.3.4-2.6.7-4 .9-1.9.3-3.8.4-5.7.4-4.8 0-9.4-.8-13.8-2.2-12.7-4.1-22.9-14.5-26.1-27.6-1-4.3-1.6-8.7-1.6-13.2 0-21.4 12.3-40.6 30.8-49.5 8.7-4.2 18.4-6.5 28.5-6.5 2.2 0 4.3.1 6.4.3 2.5.2 5 .8 7.3 1.7.9.3 1.9.7 2.8 1.1 2.1 1 4.1 2.2 5.9 3.7 13.2 8.5 21.5 23.2 21.5 39.7 0 19.6-12.7 36.1-30.9 41.5-2.7.8-5.6 1.4-8.5 1.7-1.7.2-3.3.3-5 .3h-.3c-2.4 0-4.8-.1-7.1-.5-7.8-1.2-14.9-4.6-20.6-9.8-.3-.3-.5-.5-.8-.8l-.3-.3c-2.1-2-4-4.2-5.7-6.5-5.8-8.1-9.1-17.8-9.1-28.1 0-23.7 9-45.1 24-61.2C483.2 215.3 454 199 421.3 199c-30.6 0-58.3 13.3-77.9 34.8-14.7 16.2-23.6 37-23.6 59.5s9 43.3 23.6 59.5c19.6 21.5 47.3 34.8 77.9 34.8 12.3 0 24.1-2.1 35.1-5.8-9.4-7.5-16.3-17.5-20-28.8-3.1-9.9-4.8-20.5-4.8-31.5 0-21.4 12.3-40.6 30.8-49.5 8.7-4.2 18.4-6.5 28.5-6.5 2.2 0 4.3.1 6.4.3 2.5.2 5 .8 7.3 1.7.9.3 1.9.7 2.8 1.1 2.1 1 4.1 2.2 5.9 3.7 13.2 8.5 21.5 23.2 21.5 39.7 0 19.6-12.7 36.1-30.9 41.5-2.7.8-5.6 1.4-8.5 1.7-1.7.2-3.3.3-5 .3h-.3c-2.4 0-4.8-.1-7.1-.5-7.8-1.2-14.9-4.6-20.6-9.8-.3-.3-.5-.5-.8-.8l-.3-.3c-2.1-2-4-4.2-5.7-6.5-5.8-8.1-9.1-17.8-9.1-28.1 0-21.4 12.3-40.6 30.8-49.5 8.7-4.2 18.4-6.5 28.5-6.5 2.2 0 4.3.1 6.4.3 2.5.2 5 .8 7.3 1.7.9.3 1.9.7 2.8 1.1 2.1 1 4.1 2.2 5.9 3.7 13.2 8.5 21.5 23.2 21.5 39.7 0 19.6-12.7 36.1-30.9 41.5-2.7.8-5.6 1.4-8.5 1.7-1.7.2-3.3.3-5 .3h-.3c-2.4 0-4.8-.1-7.1-.5-7.8-1.2-14.9-4.6-20.6-9.8-.3-.3-.5-.5-.8-.8l-.3-.3c-2.1-2-4-4.2-5.7-6.5-5.8-8.1-9.1-17.8-9.1-28.1 0-23.7 9-45.1 24-61.2C483.2 215.3 454 199 421.3 199c-30.6 0-58.3 13.3-77.9 34.8-14.7 16.2-23.6 37-23.6 59.5s9 43.3 23.6 59.5c19.6 21.5 47.3 34.8 77.9 34.8 12.3 0 24.1-2.1 35.1-5.8-9.4-7.5-16.3-17.5-20-28.8-3.1-9.9-4.8-20.5-4.8-31.5 0-21.4 12.3-40.6 30.8-49.5 8.7-4.2 18.4-6.5 28.5-6.5 2.2 0 4.3.1 6.4.3 2.5.2 5 .8 7.3 1.7.9.3 1.9.7 2.8 1.1 2.1 1 4.1 2.2 5.9 3.7 13.2 8.5 21.5 23.2 21.5 39.7s-8.3 31.2-21.5 39.7c-1.2.7-2.4 1.3-3.5 2-1.8 1.5-3.8 2.7-5.9 3.7-.9.4-1.9.8-2.8 1.1-2.3.9-4.8 1.5-7.3 1.7-2.1.2-4.2.3-6.4.3-10.1 0-19.8-2.3-28.5-6.5-18.6-8.9-30.8-28.1-30.8-49.5 0-10.3 3.3-20 9.1-28.1 1.7-2.3 3.6-4.5 5.7-6.5l.3-.3c.3-.3.5-.5.8-.8 5.7-5.2 12.8-8.6 20.6-9.8 2.3.4 4.7.5 7.1.5h.3c1.7 0 3.3-.1 5-.3 2.9-.3 5.8-.9 8.5-1.7 18.2-5.4 30.9-21.9 30.9-41.5 0-16.5-8.3-31.2-21.5-39.7-1.1-.7-2.3-1.4-3.5-2-1.8-1.5-3.8-2.7-5.9-3.7-.9-.4-1.9-.8-2.8-1.1-2.3-.9-4.8-1.5-7.3-1.7-2.1-.2-4.2-.3-6.4-.3-10.1 0-19.8-2.3-28.5-6.5-18.6-8.9-30.8-28.1-30.8-49.5 0-23.7 9-45.1 24-61.2C483.2 215.3 454 199 421.3 199c-30.6 0-58.3 13.3-77.9 34.8-14.7 16.2-23.6 37-23.6 59.5s9 43.3 23.6 59.5c19.6 21.5 47.3 34.8 77.9 34.8 12.3 0 24.1-2.1 35.1-5.8-9.4-7.5-16.3-17.5-20-28.8-3.1-9.9-4.8-20.5-4.8-31.5s9-45.1 24-61.2C483.2 215.3 454 199 421.3 199c-30.6 0-58.3 13.3-77.9 34.8-14.7 16.2-23.6 37-23.6 59.5s9 43.3 23.6 59.5c19.6 21.5 47.3 34.8 77.9 34.8 12.3 0 24.1-2.1 35.1-5.8-9.4-7.5-16.3-17.5-20-28.8z" fill-opacity=".05" fill="#fff"/><g fill-opacity=".08" fill="#fff"><path d="M570 398.8c.2 1 .3 2.1.3 3.1 0 19.3-11.9 36.6-29.6 44.1-1.3.5-2.6.9-3.9 1.3-1.6.4-3.3.6-5 .6-.1 0-.3 0-.4-.1-2.9-.1-5.7-.6-8.5-1.4-15.6-4.5-26.6-18.7-26.6-35.1 0-14.2 7-27.1 17.9-34.9 1.4-1 3-1.9 4.6-2.7.2-.1.4-.2.6-.3 1.9-.8 3.8-1.4 5.9-1.7 1.8-.3 3.6-.5 5.5-.5 3.3 0 6.6.5 9.7 1.4zm-13-17.7c-1.3-.4-2.6-.7-4-.9-1.9-.3-3.8-.4-5.7-.4-4.8 0-9.4.8-13.8 2.2-12.7 4.1-22.9 14.5-26.1 27.6-1 4.3-1.6 8.7-1.6 13.2 0 11.2 3.8 21.7 10.4 30.1 9.4 12 23 19.4 38 19.4.1 0 .2 0 .3 0 .1 0 .1 0 .2 0 4.1 0 8.1-.5 12-1.5 19.1-4.8 33.2-20.9 33.2-40 0-1.2-.1-2.4-.2-3.6-4.6-19.3-21-34.2-40.9-36.1z"/><path d="M421.3 195c-33.3 0-63.3 14.5-84.7 37.8-16.1 17.6-25.7 40.3-25.7 65.8s9.6 48.2 25.7 65.8c21.4 23.3 51.4 37.8 84.7 37.8s63.3-14.5 84.7-37.8c16.1-17.6 25.7-40.3 25.7-65.8s-9.6-48.2-25.7-65.8C484.6 209.5 454.6 195 421.3 195zm.1 4c32.7 0 62.1 14.2 82.9 36.9C525.1 259.4 534 281.3 534 304s-8.9 44.6-20.6 61.2C484 388.8 454.1 403 421.4 403s-62.1-14.2-82.9-36.9C317.8 348.6 309 326.7 309 304s8.9-44.6 20.6-61.2C352.2 213.2 381.8 199 421.4 199z"/></g><path d="M421.4 191c-35.9 0-68.1 15.6-91.2 40.7-17.3 18.9-27.7 43.4-27.7 70.8s10.4 51.9 27.7 70.8c23.1 25.1 55.3 40.7 91.2 40.7s68.1-15.6 91.2-40.7c17.3-18.9 27.7-43.4 27.7-70.8s-10.4-51.9-27.7-70.8C489.5 206.6 457.3 191 421.4 191z" fill-opacity=".07" fill="#fff"/><g fill-opacity=".1" fill="#fff"><path d="M869.6 270.6c-13.4 10.2-29 16.3-45.7 17.5-12.2.8-24.3-1.1-35.7-5.4-18.6-6.9-32.2-22.3-37.4-40.8-2.6-9.1-3.9-18.6-3.9-28.3 0-16.4 5.9-31.9 16.3-43.8 1.4-1.6 2.8-3.2 4.3-4.6 1.4-1.4 2.9-2.7 4.5-3.9 14.1-11.1 31.6-17.7 50-17.7 2.1 0 4.1.1 6.2.3 2.1.2 4.1.5 6.1.9 1.2.2 2.3.4 3.4.7 1.8.4 3.5.9 5.2 1.5 13.9 4.6 24.9 15.6 30.2 29 2.5 6.3 3.8 13.1 3.8 20 0 11.2-2.7 21.9-7.6 31.4-6.3 12.3-16.1 22.3-28.2 29zM629 133c16.3-15.7 38-25 61-25s44.7 9.3 61 25c16.3 15.7 25 37.4 25 61s-8.7 45.3-25 61-38 25-61 25-44.7-9.3-61-25-25-37.4-25-61 8.7-45.3 25-61zm-136.2 31.1c-2.3 3.9-3.6 8.3-3.6 12.9 0 15.4 12.6 28 28 28s28-12.6 28-28c0-4.6-1.3-9-3.6-12.9-5.1 9-14.7 15.1-25.4 15.1s-20.3-6.1-25.4-15.1z"/><path d="M495.2 133c-31.5 0-57 25.5-57 57s25.5 57 57 57 57-25.5 57-57-25.5-57-57-57zm0 28c16 0 29 13 29 29s-13 29-29 29-29-13-29-29 13-29 29-29z"/><path d="M784.8 221.9c-7.9-16.2-23.7-27.1-42-27.1s-34.1 10.9-42 27.1c-1.3 2.6-2.3 5.4-3.1 8.3-5.2-9-14.7-15.1-25.4-15.1-16 0-29 13-29 29s13 29 29 29c10.7 0 20.3-6.1 25.4-15.1.8 2.9 1.8 5.7 3.1 8.3 7.9 16.2 23.7 27.1 42 27.1s34.1-10.9 42-27.1c1.3-2.6 2.3-5.4 3.1-8.3 5.2 9 14.7 15.1 25.4 15.1 16 0 29-13 29-29s-13-29-29-29c-10.7 0-20.3-6.1-25.4-15.1-.8-2.9-1.8-5.7-3.1-8.3z"/><path d="M374.8 190.1c16-16.1 37.6-25.6 61-25.6 23.4 0 45 9.5 61 25.6 16 16.1 25.6 37.6 25.6 61 0 23.4-9.5 45-25.6 61-16 16.1-37.6 25.6-61 25.6-23.4 0-45-9.5-61-25.6-16-16.1-25.6-37.6-25.6-61s9.6-44.9 25.6-61zM435.8 332c19.9 0 38.1-7.9 51.5-20.9 13.4-13 21.1-30.8 21.1-49.9s-7.7-36.9-21.1-49.9c-13.4-13-31.6-20.9-51.5-20.9s-38.1 7.9-51.5 20.9c-13.4 13-21.1 30.8-21.1 49.9s7.7 36.9 21.1 49.9c13.4 13 31.6 20.9 51.5 20.9z"/><path d="M635.8 454c-16-16.1-37.6-25.6-61-25.6-23.4 0-45 9.5-61 25.6-16 16.1-25.6 37.6-25.6 61s9.5 45 25.6 61c16 16.1 37.6 25.6 61 25.6s45-9.5 61-25.6c16-16.1 25.6-37.6 25.6-61s-9.6-44.9-25.6-61zm-61 141c-19.9 0-38.1-7.9-51.5-20.9-13.4-13-21.1-30.8-21.1-49.9s7.7-36.9 21.1-49.9c-13.4-13-31.6-20.9-51.5-20.9s-38.1 7.9-51.5 20.9c-13.4 13-21.1 30.8-21.1 49.9s7.7 36.9 21.1 49.9c13.4 13 31.6 20.9 51.5 20.9s38.1-7.9 51.5-20.9c13.4 13 31.6 20.9 51.5 20.9s38.1-7.9 51.5-20.9c13.4-13 21.1-30.8 21.1-49.9s-7.7-36.9-21.1-49.9c13.4-13 31.6-20.9 51.5-20.9s38.1 7.9 51.5 20.9c13.4 13 21.1 30.8 21.1 49.9s-7.7 36.9-21.1 49.9c13.4 13 31.6 20.9 51.5 20.9s38.1-7.9 51.5-20.9c13.4-13 21.1-30.8 21.1-49.9s-7.7-36.9-21.1-49.9c-13.4-13-31.6-20.9-51.5-20.9-19.9 0-38.1 7.9-51.5 20.9-13.4-13-21.1-30.8-21.1-49.9s7.7-36.9 21.1-49.9c13.4-13 31.6-20.9 51.5-20.9s38.1 7.9 51.5 20.9c13.4 13 21.1 30.8 21.1 49.9s-7.7 36.9-21.1 49.9c13.4 13 31.6 20.9 51.5 20.9s38.1 7.9 51.5 20.9c13.4 13 21.1 30.8 21.1 49.9s-7.7 36.9-21.1 49.9c-13.4 13-31.6 20.9-51.5 20.9-19.9 0-38.1-7.9-51.5-20.9-13.4-13-21.1-30.8-21.1-49.9s7.7-36.9 21.1-49.9c-13.4-13-31.6-20.9-51.5-20.9-19.9 0-38.1 7.9-51.5 20.9-13.4 13-21.1 30.8-21.1 49.9s7.7 36.9 21.1 49.9c-13.4 13-31.6 20.9-51.5 20.9s-38.1 7.9-51.5 20.9c-13.4 13-21.1 30.8-21.1 49.9s7.7 36.9 21.1 49.9c13.4 13 31.6 20.9 51.5 20.9s38.1-7.9 51.5-20.9c13.4 13 31.6 20.9 51.5 20.9s38.1-7.9 51.5-20.9c13.4 13 21.1 30.8 21.1 49.9s-7.7-36.9-21.1-49.9c13.4-13 31.6-20.9 51.5-20.9s38.1 7.9 51.5 20.9c13.4 13 21.1 30.8 21.1 49.9s-7.7-36.9-21.1-49.9c-13.4-13-31.6-20.9-51.5-20.9-19.9 0-38.1 7.9-51.5 20.9-13.4 13-21.1 30.8-21.1 49.9s7.7 36.9 21.1 49.9c13.4 13 31.6 20.9 51.5 20.9s38.1-7.9 51.5-20.9c13.4 13 31.6 20.9 51.5 20.9s38.1-7.9 51.5-20.9c13.4-13 21.1-30.8-21.1-49.9s7.7-36.9 21.1-49.9c13.4-13-31.6-20.9-51.5-20.9s-38.1 7.9-51.5 20.9c-13.4 13-21.1 30.8-21.1 49.9s7.7 36.9 21.1 49.9c13.4 13 31.6 20.9 51.5 20.9z"/><path d="M293.8 454c-16-16.1-37.6-25.6-61-25.6s-45 9.5-61 25.6c-16 16.1-25.6 37.6-25.6 61s9.5 45 25.6 61c16 16.1 37.6 25.6 61 25.6s45-9.5 61-25.6c16-16.1 25.6-37.6 25.6-61s-9.6-44.9-25.6-61zm-61 141c-19.9 0-38.1-7.9-51.5-20.9-13.4-13-21.1-30.8-21.1-49.9s7.7-36.9 21.1-49.9c-13.4-13-31.6-20.9-51.5-20.9s-38.1 7.9-51.5 20.9c-13.4 13-21.1 30.8-21.1 49.9s7.7 36.9 21.1 49.9c13.4 13 31.6 20.9 51.5 20.9s38.1-7.9 51.5-20.9c13.4 13 31.6 20.9 51.5 20.9s38.1-7.9 51.5-20.9c13.4-13-21.1-30.8-21.1-49.9s7.7-36.9 21.1-49.9c13.4-13-31.6-20.9-51.5-20.9s-38.1 7.9-51.5 20.9c-13.4 13-21.1 30.8-21.1 49.9s7.7 36.9 21.1 49.9c13.4 13 31.6 20.9 51.5 20.9z"/><path d="M125.8 244c-16-16.1-37.6-25.6-61-25.6-23.4 0-45 9.5-61 25.6C-11.8 260.1-21.3 281.6-21.3 305c0 23.4 9.5 45 25.6 61 16 16.1 37.6 25.6 61 25.6s45-9.5 61-25.6c16-16.1 25.6-37.6 25.6-61s-9.6-44.9-25.6-61zm-61 141c-19.9 0-38.1-7.9-51.5-20.9-13.4-13-21.1-30.8-21.1-49.9s7.7-36.9 21.1-49.9c-13.4-13-31.6-20.9-51.5-20.9s-38.1 7.9-51.5 20.9c-13.4 13-21.1 30.8-21.1 49.9s7.7 36.9 21.1 49.9c13.4 13 31.6 20.9 51.5 20.9s38.1-7.9 51.5-20.9c13.4 13 31.6 20.9 51.5 20.9s38.1-7.9 51.5-20.9c13.4-13-21.1-30.8-21.1-49.9s7.7-36.9 21.1-49.9c13.4-13-31.6-20.9-51.5-20.9s-38.1 7.9-51.5 20.9c-13.4 13-21.1 30.8-21.1 49.9s7.7 36.9 21.1 49.9c13.4 13 31.6 20.9 51.5 20.9z"/><path d="M890.8 454c-16-16.1-37.6-25.6-61-25.6s-45 9.5-61 25.6c-16 16.1-25.6 37.6-25.6 61s9.5 45 25.6 61c16 16.1 37.6 25.6 61 25.6s45-9.5 61-25.6c16-16.1 25.6-37.6 25.6-61s-9.6-44.9-25.6-61zm-61 141c-19.9 0-38.1-7.9-51.5-20.9-13.4-13-21.1-30.8-21.1-49.9s7.7-36.9 21.1-49.9c-13.4-13-31.6-20.9-51.5-20.9s-38.1 7.9-51.5 20.9c-13.4 13-21.1 30.8-21.1 49.9s7.7 36.9 21.1 49.9c13.4 13 31.6 20.9 51.5 20.9s38.1-7.9 51.5-20.9c13.4 13 31.6 20.9 51.5 20.9s38.1-7.9 51.5-20.9c13.4-13-21.1-30.8-21.1-49.9s7.7-36.9 21.1-49.9c13.4-13-31.6-20.9-51.5-20.9s-38.1 7.9-51.5 20.9c-13.4 13-21.1 30.8-21.1 49.9s7.7 36.9 21.1 49.9c13.4 13 31.6 20.9 51.5 20.9z"/><path d="M1024 286c-13.4 10.2-29 16.3-45.7 17.5-12.2.8-24.3-1.1-35.7-5.4-18.6-6.9-32.2-22.3-37.4-40.8-2.6-9.1-3.9-18.6-3.9-28.3 0-16.4 5.9-31.9 16.3-43.8 1.4-1.6 2.8-3.2 4.3-4.6 1.4-1.4 2.9-2.7 4.5-3.9 14.1-11.1 31.6-17.7 50-17.7 2.1 0 4.1.1 6.2.3 2.1.2 4.1.5 6.1.9 1.2.2 2.3.4 3.4.7 1.8.4 3.5.9 5.2 1.5 13.9 4.6 24.9 15.6 30.2 29 2.5 6.3 3.8 13.1 3.8 20 0 11.2-2.7 21.9-7.6 31.4-6.3 12.3-16.1 22.3-28.2 29zM269.8 83c-13.4-10.2-29-16.3-45.7-17.5-12.2-.8-24.3 1.1-35.7 5.4-18.6 6.9-32.2 22.3-37.4 40.8-2.6 9.1-3.9 18.6-3.9 28.3 0 16.4 5.9 31.9 16.3 43.8 1.4 1.6 2.8 3.2 4.3 4.6 1.4 1.4 2.9 2.7 4.5 3.9 14.1 11.1 31.6 17.7 50 17.7 2.1 0 4.1-.1 6.2-.3 2.1-.2 4.1-.5 6.1-.9 1.2-.2 2.3-.4 3.4-.7 1.8-.4 3.5-.9 5.2-1.5 13.9-4.6 24.9-15.6 30.2-29 2.5-6.3 3.8-13.1 3.8-20 0-11.2-2.7-21.9-7.6-31.4-6.3-12.3-16.1-22.3-28.2-29zM100.8 12.5C87.4 2.3 71.8-3.8 55.1-5c-12.2-.8-24.3 1.1-35.7 5.4C.8 17.3-12.8 32.7-18 51.2c-2.6 9.1-3.9 18.6-3.9 28.3 0 16.4 5.9 31.9 16.3 43.8 1.4 1.6 2.8 3.2 4.3 4.6 1.4 1.4 2.9 2.7 4.5 3.9 14.1 11.1 31.6 17.7 50 17.7 2.1 0 4.1-.1 6.2-.3 2.1-.2 4.1-.5 6.1-.9 1.2-.2 2.3-.4 3.4-.7 1.8-.4 3.5-.9 5.2-1.5 13.9-4.6 24.9-15.6 30.2-29 2.5-6.3 3.8-13.1 3.8-20 0-11.2-2.7-21.9-7.6-31.4-6.3-12.3-16.1-22.3-28.2-29z"/><path d="M-22.3 459c-13.4-10.2-29-16.3-45.7-17.5-12.2-.8-24.3 1.1-35.7 5.4-18.6 6.9-32.2 22.3-37.4 40.8-2.6 9.1-3.9 18.6-3.9 28.3 0 16.4 5.9 31.9 16.3 43.8 1.4 1.6 2.8 3.2 4.3 4.6 1.4 1.4 2.9 2.7 4.5 3.9 14.1 11.1 31.6 17.7 50 17.7 2.1 0 4.1-.1 6.2-.3 2.1-.2 4.1-.5 6.1-.9 1.2-.2 2.3-.4 3.4-.7 1.8-.4 3.5-.9 5.2-1.5 13.9-4.6 24.9-15.6 30.2-29 2.5-6.3 3.8-13.1 3.8-20 0-11.2-2.7-21.9-7.6-31.4-6.3-12.3-16.1-22.3-28.2-29zM268.7 613.9c-13.4-10.2-29-16.3-45.7-17.5-12.2-.8-24.3 1.1-35.7 5.4-18.6 6.9-32.2 22.3-37.4 40.8-2.6 9.1-3.9 18.6-3.9 28.3 0 16.4 5.9 31.9 16.3 43.8 1.4 1.6 2.8 3.2 4.3 4.6 1.4 1.4 2.9 2.7 4.5 3.9 14.1 11.1 31.6 17.7 50 17.7 2.1 0 4.1-.1 6.2-.3 2.1-.2 4.1-.5 6.1-.9 1.2-.2 2.3-.4 3.4-.7 1.8-.4 3.5-.9 5.2-1.5 13.9-4.6 24.9-15.6 30.2-29 2.5-6.3 3.8-13.1 3.8-20 0-11.2-2.7-21.9-7.6-31.4-6.3-12.3-16.1-22.3-28.2-29z"/><path d="M1001.7 516.9c13.4-10.2 29-16.3 45.7-17.5 12.2-.8 24.3 1.1 35.7 5.4 18.6 6.9 32.2 22.3 37.4 40.8 2.6 9.1 3.9 18.6 3.9 28.3 0 16.4-5.9 31.9-16.3 43.8-1.4 1.6-2.8 3.2-4.3 4.6-1.4 1.4-2.9 2.7-4.5 3.9-14.1 11.1-31.6 17.7-50 17.7-2.1 0-4.1-.1-6.2-.3-2.1-.2-4.1-.5-6.1-.9-1.2-.2-2.3-.4-3.4-.7-1.8-.4-3.5-.9-5.2-1.5-13.9-4.6-24.9-15.6-30.2-29-2.5-6.3-3.8-13.1-3.8-20 0-11.2 2.7-21.9 7.6-31.4 6.3-12.3 16.1-22.3 28.2-29z"/></g></svg>